<svg width="352" height="255" viewBox="0 0 352 255" fill="none" xmlns="http://www.w3.org/2000/svg">
<path d="M180.484 233.83C226.47 233.83 306.785 192.995 306.785 141.64C306.785 90.2848 261.945 111.191 251.108 54.3583C206.267 -15.1872 71.7451 67.314 71.7451 118.669C71.7451 170.025 134.498 233.83 180.484 233.83Z" fill="#F4D160"/>
<path d="M224.312 191.166V252.636H70.2184C52.6615 252.636 38.377 238.848 38.377 221.901C38.377 204.954 52.6614 191.166 70.2184 191.166H224.312Z" fill="#F2F2F2"/>
<path d="M228.097 252.163C228.096 252.79 227.847 253.391 227.404 253.834C226.96 254.278 226.358 254.527 225.731 254.527H67.4731C58.8778 254.527 50.6345 251.115 44.5567 245.04C38.4789 238.966 35.0645 230.727 35.0645 222.137C35.0645 213.547 38.4789 205.308 44.5567 199.234C50.6345 193.16 58.8778 189.747 67.4731 189.747H225.731C226.359 189.747 226.96 189.996 227.404 190.439C227.848 190.883 228.097 191.484 228.097 192.111C228.097 192.738 227.848 193.34 227.404 193.783C226.96 194.226 226.359 194.475 225.731 194.475H67.4731C60.1325 194.475 53.0927 197.39 47.9022 202.577C42.7116 207.765 39.7956 214.801 39.7956 222.137C39.7956 229.473 42.7116 236.509 47.9022 241.697C53.0927 246.884 60.1325 249.799 67.4731 249.799H225.731C226.358 249.799 226.96 250.048 227.404 250.491C227.847 250.935 228.096 251.536 228.097 252.163Z" fill="#28527A"/>
<path d="M224.312 205.351H58.7202C58.5947 205.351 58.4744 205.301 58.3857 205.213C58.2969 205.124 58.2471 205.004 58.2471 204.878C58.2471 204.753 58.2969 204.633 58.3857 204.544C58.4744 204.455 58.5947 204.405 58.7202 204.405H224.312C224.437 204.405 224.557 204.455 224.646 204.544C224.735 204.633 224.785 204.753 224.785 204.878C224.785 205.004 224.735 205.124 224.646 205.213C224.557 205.301 224.437 205.351 224.312 205.351Z" fill="#CCCCCC"/>
<path d="M224.312 216.699H58.7202C58.5947 216.699 58.4744 216.65 58.3857 216.561C58.2969 216.472 58.2471 216.352 58.2471 216.226C58.2471 216.101 58.2969 215.981 58.3857 215.892C58.4744 215.803 58.5947 215.754 58.7202 215.754H224.312C224.437 215.754 224.557 215.803 224.646 215.892C224.735 215.981 224.785 216.101 224.785 216.226C224.785 216.352 224.735 216.472 224.646 216.561C224.557 216.65 224.437 216.699 224.312 216.699Z" fill="#CCCCCC"/>
<path d="M224.312 228.048H58.7202C58.5947 228.048 58.4744 227.998 58.3857 227.909C58.2969 227.82 58.2471 227.7 58.2471 227.575C58.2471 227.449 58.2969 227.329 58.3857 227.24C58.4744 227.152 58.5947 227.102 58.7202 227.102H224.312C224.437 227.102 224.557 227.152 224.646 227.24C224.735 227.329 224.785 227.449 224.785 227.575C224.785 227.7 224.735 227.82 224.646 227.909C224.557 227.998 224.437 228.048 224.312 228.048Z" fill="#CCCCCC"/>
<path d="M224.312 239.396H58.7202C58.5947 239.396 58.4744 239.346 58.3857 239.258C58.2969 239.169 58.2471 239.049 58.2471 238.923C58.2471 238.798 58.2969 238.678 58.3857 238.589C58.4744 238.5 58.5947 238.45 58.7202 238.45H224.312C224.437 238.45 224.557 238.5 224.646 238.589C224.735 238.678 224.785 238.798 224.785 238.923C224.785 239.049 224.735 239.169 224.646 239.258C224.557 239.346 224.437 239.396 224.312 239.396Z" fill="#CCCCCC"/>
<path d="M343.404 202.737L304.815 250.602L184.825 153.976C171.153 142.966 168.686 123.273 179.325 110.076C189.964 96.8801 209.743 95.1008 223.414 106.11L343.404 202.737Z" fill="#F2F2F2"/>
<path d="M308.058 252.607C307.665 253.095 307.093 253.407 306.469 253.474C305.846 253.541 305.221 253.358 304.732 252.965L181.5 153.727C174.807 148.338 170.53 140.511 169.611 131.97C168.691 123.429 171.205 114.873 176.598 108.184C181.99 101.495 189.821 97.2205 198.367 96.3017C206.913 95.3829 215.474 97.8947 222.167 103.284L345.4 202.522C345.642 202.717 345.843 202.957 345.992 203.23C346.141 203.502 346.235 203.802 346.269 204.11C346.302 204.419 346.274 204.732 346.187 205.03C346.099 205.328 345.954 205.605 345.759 205.847C345.564 206.089 345.323 206.29 345.05 206.439C344.777 206.588 344.478 206.682 344.169 206.715C343.86 206.748 343.547 206.72 343.249 206.632C342.951 206.545 342.673 206.399 342.431 206.204L219.199 106.966C216.369 104.686 213.117 102.984 209.629 101.96C206.141 100.935 202.485 100.608 198.87 100.996C195.255 101.384 191.752 102.479 188.562 104.221C185.371 105.962 182.554 108.314 180.273 111.144C177.992 113.973 176.291 117.224 175.268 120.71C174.244 124.197 173.917 127.851 174.307 131.463C174.697 135.076 175.794 138.576 177.538 141.765C179.281 144.953 181.636 147.767 184.468 150.045L307.701 249.283C308.189 249.677 308.501 250.248 308.568 250.871C308.635 251.495 308.452 252.119 308.058 252.607Z" fill="#CCCCCC"/>
<path d="M334.499 213.783L205.556 109.947C205.508 109.908 205.468 109.859 205.438 109.805C205.408 109.75 205.389 109.691 205.383 109.629C205.376 109.567 205.382 109.505 205.399 109.445C205.417 109.386 205.446 109.33 205.485 109.282C205.524 109.233 205.572 109.193 205.626 109.163C205.681 109.134 205.741 109.115 205.802 109.108C205.864 109.102 205.927 109.107 205.986 109.125C206.046 109.142 206.101 109.171 206.15 109.21L335.093 213.046C335.141 213.085 335.181 213.133 335.211 213.188C335.241 213.242 335.26 213.302 335.267 213.364C335.273 213.426 335.268 213.488 335.25 213.548C335.233 213.607 335.204 213.663 335.165 213.711C335.126 213.76 335.077 213.8 335.023 213.83C334.968 213.86 334.908 213.878 334.847 213.885C334.785 213.892 334.722 213.886 334.663 213.868C334.603 213.851 334.547 213.822 334.499 213.783V213.783Z" fill="#CCCCCC"/>
<path d="M327.374 222.619L198.432 118.783C198.334 118.705 198.272 118.59 198.259 118.466C198.245 118.341 198.282 118.216 198.361 118.119C198.439 118.021 198.553 117.959 198.678 117.945C198.803 117.932 198.928 117.968 199.025 118.047L327.968 221.883C328.017 221.922 328.057 221.97 328.087 222.024C328.117 222.079 328.135 222.139 328.142 222.201C328.149 222.262 328.143 222.325 328.126 222.385C328.108 222.444 328.079 222.5 328.04 222.548C328.001 222.597 327.953 222.637 327.898 222.667C327.844 222.696 327.784 222.715 327.722 222.722C327.66 222.728 327.598 222.723 327.538 222.705C327.478 222.688 327.423 222.658 327.374 222.619Z" fill="#CCCCCC"/>
<path d="M320.25 231.456L191.307 127.62C191.209 127.541 191.147 127.427 191.134 127.302C191.12 127.178 191.157 127.053 191.236 126.955C191.314 126.857 191.429 126.795 191.553 126.782C191.678 126.768 191.803 126.805 191.901 126.883L320.844 230.72C320.892 230.758 320.932 230.807 320.962 230.861C320.992 230.916 321.011 230.975 321.017 231.037C321.024 231.099 321.018 231.161 321.001 231.221C320.983 231.28 320.954 231.336 320.915 231.384C320.876 231.433 320.828 231.473 320.774 231.503C320.719 231.532 320.659 231.551 320.597 231.558C320.536 231.564 320.473 231.559 320.413 231.541C320.354 231.524 320.298 231.495 320.25 231.456V231.456Z" fill="#CCCCCC"/>
<path d="M313.126 240.293L184.183 136.457C184.135 136.418 184.095 136.37 184.065 136.315C184.035 136.261 184.016 136.201 184.01 136.139C184.003 136.077 184.009 136.015 184.026 135.955C184.044 135.896 184.073 135.84 184.112 135.792C184.151 135.744 184.199 135.703 184.253 135.674C184.308 135.644 184.368 135.625 184.429 135.618C184.491 135.612 184.554 135.617 184.613 135.635C184.673 135.652 184.728 135.681 184.777 135.72L313.72 239.556C313.768 239.595 313.808 239.643 313.838 239.698C313.868 239.752 313.887 239.812 313.893 239.874C313.9 239.936 313.895 239.998 313.877 240.058C313.86 240.118 313.831 240.173 313.792 240.222C313.753 240.27 313.704 240.31 313.65 240.34C313.595 240.37 313.535 240.389 313.473 240.395C313.412 240.402 313.349 240.396 313.289 240.379C313.23 240.361 313.174 240.332 313.126 240.293Z" fill="#CCCCCC"/>
<path d="M351.527 255H0.473118C0.34764 255 0.2273 254.95 0.138573 254.861C0.0498459 254.773 0 254.653 0 254.527C0 254.402 0.0498459 254.281 0.138573 254.193C0.2273 254.104 0.34764 254.054 0.473118 254.054H351.527C351.652 254.054 351.773 254.104 351.861 254.193C351.95 254.281 352 254.402 352 254.527C352 254.653 351.95 254.773 351.861 254.861C351.773 254.95 351.652 255 351.527 255Z" fill="#CCCCCC"/>
<path d="M159.953 184.705L154.544 184.704L151.972 163.854L159.955 163.854L159.953 184.705Z" fill="#FFB8B8"/>
<path d="M150.68 183.16H161.111V189.724H144.112C144.112 188.862 144.282 188.008 144.612 187.212C144.942 186.415 145.426 185.692 146.036 185.082C146.646 184.473 147.37 183.989 148.167 183.659C148.964 183.329 149.818 183.16 150.68 183.16Z" fill="#2F2E41"/>
<path d="M104.695 184.705L99.2862 184.704L96.7139 163.854L104.697 163.854L104.695 184.705Z" fill="#FFB8B8"/>
<path d="M95.4223 183.16H105.854V189.724H88.8545C88.8545 188.862 89.0244 188.008 89.3544 187.212C89.6845 186.415 90.1683 185.692 90.7782 185.082C91.388 184.473 92.1121 183.989 92.9089 183.659C93.7057 183.329 94.5598 183.16 95.4223 183.16Z" fill="#2F2E41"/>
<path d="M122.761 30.0414V27.6771C122.761 23.6328 124.368 19.754 127.23 16.8942C130.091 14.0344 133.972 12.4278 138.019 12.4278H138.019C142.066 12.4278 145.946 14.0344 148.808 16.8942C151.669 19.754 153.277 23.6328 153.277 27.6771V30.0414C153.277 32.9571 152.118 35.7534 150.055 37.8151C147.992 39.8768 145.194 41.0351 142.277 41.0351H133.761C132.316 41.0351 130.886 40.7508 129.551 40.1983C128.217 39.6458 127.004 38.836 125.983 37.8151C124.961 36.7943 124.151 35.5823 123.598 34.2485C123.045 32.9147 122.761 31.4851 122.761 30.0414Z" fill="#2F2E41"/>
<path d="M138.019 41.8486C144.436 41.8486 149.639 36.649 149.639 30.235C149.639 23.821 144.436 18.6214 138.019 18.6214C131.601 18.6214 126.398 23.821 126.398 30.235C126.398 36.649 131.601 41.8486 138.019 41.8486Z" fill="#FFB8B8"/>
<path d="M74.8117 70.1496C75.2833 69.7045 75.8468 69.3683 76.4624 69.1644C77.0781 68.9606 77.731 68.8941 78.3751 68.9697C79.0193 69.0453 79.639 69.2612 80.1907 69.6021C80.7423 69.943 81.2124 70.4006 81.568 70.9427L91.5293 69.0595L94.1508 74.8304L80.0461 77.2924C79.0953 77.829 77.9805 77.9983 76.9131 77.7683C75.8457 77.5383 74.8997 76.925 74.2545 76.0446C73.6093 75.1641 73.3097 74.0777 73.4124 72.9912C73.5151 71.9048 74.013 70.8936 74.8117 70.1495V70.1496Z" fill="#FFB8B8"/>
<path d="M128.959 49.1625L129.089 49.3598L112.754 60.1144L85.191 68.9109C84.8256 69.0282 84.5122 69.2685 84.3041 69.5908C84.0961 69.9131 84.0062 70.2975 84.0498 70.6785L84.6511 75.8546C84.6778 76.0837 84.752 76.3047 84.8692 76.5034C84.9863 76.7021 85.1437 76.8742 85.3312 77.0086C85.5188 77.143 85.7323 77.2367 85.9582 77.2838C86.1841 77.3308 86.4174 77.3302 86.643 77.2819L112.584 71.7246C113.839 71.4572 115.026 70.9349 116.072 70.19L134.423 57.1409C135.088 56.6653 135.619 56.0257 135.964 55.2843C136.308 54.5429 136.455 53.725 136.39 52.9101C136.323 52.0941 136.044 51.3096 135.582 50.6339C135.119 49.9581 134.488 49.4144 133.751 49.0562C133.015 48.698 132.197 48.5376 131.38 48.5908C130.562 48.644 129.773 48.909 129.089 49.3598L128.959 49.1625Z" fill="#CCCCCC"/>
<path d="M154.64 178.788C154.225 178.788 153.819 178.667 153.471 178.44C153.124 178.213 152.85 177.89 152.683 177.51L127.887 116.276C127.829 116.143 127.732 116.031 127.608 115.956C127.485 115.88 127.341 115.843 127.196 115.851C127.052 115.86 126.913 115.912 126.799 116.001C126.685 116.09 126.601 116.213 126.558 116.351L106.328 175.965C106.243 176.242 106.102 176.499 105.913 176.72C105.725 176.941 105.493 177.121 105.232 177.249C104.972 177.377 104.688 177.45 104.397 177.465C104.107 177.479 103.817 177.434 103.546 177.332L96.7618 174.789C96.3936 174.652 96.0706 174.416 95.8286 174.107C95.5866 173.798 95.4352 173.428 95.3912 173.038C92.3393 146.467 118.952 79.3997 119.222 78.7255L119.296 78.5387L143.556 83.9021L143.607 83.957C153.286 94.51 161.242 161.07 162.738 174.306C162.794 174.784 162.685 175.267 162.43 175.675C162.174 176.083 161.787 176.391 161.332 176.55L155.345 178.667C155.118 178.747 154.88 178.788 154.64 178.788Z" fill="#2F2E41"/>
<path d="M133.738 86.0609C127.86 86.0609 121.307 84.8896 119.29 80.0554L119.243 79.9443L119.306 79.8414C120.898 77.2305 123.002 72.7768 121.871 71.9408C119.643 70.2944 118.562 67.5859 118.658 63.8904C118.867 55.8681 124.336 48.7456 132.268 46.1669H132.268C134.482 45.4588 136.735 44.879 139.016 44.4304C140.679 44.0951 142.395 44.132 144.042 44.5384C145.689 44.9449 147.226 45.7109 148.541 46.7813C149.873 47.8587 150.95 49.2177 151.694 50.7604C152.438 52.3032 152.831 53.9916 152.845 55.7042C152.928 64.2773 151.607 76.2179 144.843 84.4156C144.526 84.796 144.085 85.0524 143.597 85.1397C140.343 85.7279 137.045 86.0361 133.738 86.0609Z" fill="#CCCCCC"/>
<path d="M131.551 85.7399C131.871 84.5931 132.631 83.6188 133.666 83.0288C134.7 82.4387 135.926 82.2806 137.077 82.5888C137.312 82.6544 137.541 82.7392 137.762 82.8423L145.325 75.963L150.585 79.5047L139.769 89.0708C139.281 89.9509 138.512 90.6425 137.585 91.0355C136.658 91.4285 135.626 91.5003 134.653 91.2396C134.087 91.0846 133.556 90.819 133.093 90.4579C132.63 90.0969 132.243 89.6477 131.955 89.1363C131.666 88.6249 131.482 88.0614 131.413 87.4784C131.344 86.8955 131.391 86.3046 131.551 85.7399Z" fill="#FFB8B8"/>
<path d="M144.126 85.8273C143.636 85.8276 143.16 85.658 142.78 85.3473L139.797 82.9112C139.549 82.7081 139.349 82.4515 139.214 82.1605C139.079 81.8694 139.011 81.5516 139.016 81.2307C139.021 80.9098 139.098 80.5942 139.243 80.3075C139.387 80.0208 139.594 79.7705 139.849 79.5752L152.359 69.9859C152.507 69.8717 152.605 69.7037 152.63 69.5182C152.655 69.3328 152.606 69.145 152.493 68.9955L144.772 58.7932C143.875 57.6119 143.425 56.1514 143.502 54.6703C143.578 53.1892 144.177 51.7831 145.192 50.7008C146.26 49.5474 147.723 48.8377 149.291 48.7124C150.859 48.5871 152.416 49.0553 153.655 50.0243L153.703 50.0758L161.766 61.6144C162.638 62.2976 163.34 63.173 163.818 64.1722C164.295 65.1714 164.535 66.2675 164.518 67.3746C164.502 68.4818 164.23 69.5702 163.723 70.5548C163.216 71.5393 162.488 72.3935 161.596 73.0504L145.394 85.41C145.027 85.681 144.583 85.8273 144.126 85.8273Z" fill="#CCCCCC"/>
<path d="M127.726 26.968V21.2058L138.019 16.7137L147.833 21.2058V26.968C147.833 27.2188 147.733 27.4593 147.556 27.6367C147.379 27.814 147.138 27.9137 146.887 27.9137H128.672C128.421 27.9137 128.18 27.814 128.003 27.6367C127.825 27.4593 127.726 27.2188 127.726 26.968Z" fill="#2F2E41"/>
<path d="M137.546 13.1923C136.032 8.35107 139.211 2.80276 143.91 0.886466C148.608 -1.02983 154.23 0.30972 158.195 3.47573C162.16 6.64173 164.619 11.3838 165.923 16.2857C167.226 21.1876 167.474 26.2991 167.714 31.3655C173.487 32.4253 177.415 39.2688 175.415 44.7841C173.415 50.2994 166.013 53.0394 160.9 50.1567C155.788 47.274 154.308 39.5249 157.997 34.9624C159.743 32.8035 160.718 30.1242 160.768 27.3489C160.819 24.5735 159.941 21.8608 158.274 19.6403C156.608 17.4198 154.247 15.8185 151.567 15.09C148.887 14.3614 146.041 14.5474 143.478 15.6183C140.633 16.8075 137.063 13.7178 137.546 13.1923Z" fill="#2F2E41"/>
<path d="M72.678 47.7967C65.7661 47.7513 58.9405 46.2573 52.6424 43.4111C52.2674 43.2441 51.9492 42.9717 51.7265 42.6272C51.5037 42.2826 51.386 41.8807 51.3877 41.4705V24.2504C51.3883 23.6862 51.6129 23.1454 52.012 22.7465C52.4111 22.3476 52.9523 22.1232 53.5167 22.1226H91.8393C92.4038 22.1232 92.945 22.3476 93.3441 22.7465C93.7432 23.1454 93.9677 23.6862 93.9684 24.2504V41.4705C93.9701 41.8808 93.8524 42.2826 93.6296 42.6272C93.4068 42.9717 93.0886 43.2441 92.7137 43.4111C86.4155 46.2573 79.59 47.7513 72.678 47.7967Z" fill="#28527A"/>
<path d="M72.6723 33.8464C72.3882 33.8466 72.1069 33.7901 71.845 33.6801L41.4557 20.8662C41.0638 20.7009 40.7304 20.4222 40.4985 20.0658C40.2666 19.7095 40.1469 19.2919 40.1547 18.8668C40.1624 18.4418 40.2975 18.0289 40.5423 17.6812C40.7871 17.3336 41.1304 17.0672 41.5281 16.9165L71.9178 5.39424C72.4073 5.20781 72.9485 5.20896 73.4372 5.39748L103.42 16.9197C103.815 17.0717 104.156 17.3381 104.399 17.6849C104.642 18.0317 104.776 18.4431 104.784 18.8664C104.792 19.2898 104.673 19.7058 104.443 20.0614C104.213 20.4169 103.882 20.6957 103.493 20.8622L73.5097 33.676C73.245 33.7887 72.9601 33.8466 72.6723 33.8464Z" fill="#28527A"/>
<path d="M54.9354 44.5828C56.5032 44.5828 57.7741 43.3126 57.7741 41.7457C57.7741 40.1788 56.5032 38.9086 54.9354 38.9086C53.3676 38.9086 52.0967 40.1788 52.0967 41.7457C52.0967 43.3126 53.3676 44.5828 54.9354 44.5828Z" fill="#3F3D56"/>
<path opacity="0.2" d="M103.597 19.0434L73.6136 31.8572C73.3799 31.957 73.1284 32.0088 72.8742 32.0095C72.6199 32.0101 72.3682 31.9595 72.134 31.8607L41.7447 19.0471C41.363 18.89 41.0446 18.6103 40.8398 18.2522C40.7058 18.4845 40.6228 18.7425 40.5962 19.0093C40.5696 19.276 40.6002 19.5454 40.6858 19.7994C40.7713 20.0535 40.91 20.2865 41.0926 20.4829C41.2752 20.6792 41.4974 20.8346 41.7447 20.9385L72.134 33.7521C72.3682 33.8509 72.6199 33.9015 72.8742 33.9009C73.1284 33.9002 73.3799 33.8484 73.6136 33.7485L103.597 20.9348C103.843 20.8299 104.063 20.6741 104.245 20.4776C104.426 20.2811 104.564 20.0485 104.648 19.7949C104.733 19.5414 104.763 19.2728 104.736 19.0069C104.709 18.741 104.626 18.4837 104.493 18.2522C104.29 18.6074 103.974 18.8856 103.597 19.0434Z" fill="black"/>
<path d="M55.1743 41.7346C55.2998 41.7346 55.4201 41.6848 55.5088 41.5962C55.5976 41.5075 55.6474 41.3872 55.6474 41.2618V25.4396L71.2514 19.7583C71.3769 19.7602 71.498 19.7122 71.588 19.6248C71.6781 19.5374 71.7297 19.4179 71.7316 19.2925C71.7335 19.1671 71.6854 19.0461 71.598 18.9561C71.5106 18.8661 71.391 18.8145 71.2655 18.8126L55.6615 24.4939C55.5359 24.4911 55.4111 24.5137 55.2945 24.5604C55.178 24.6072 55.0721 24.6771 54.9834 24.7659C54.8937 24.8537 54.8225 24.9585 54.774 25.0742C54.7256 25.19 54.7008 25.3142 54.7012 25.4396V41.2618C54.7012 41.3872 54.751 41.5075 54.8398 41.5961C54.9285 41.6848 55.0488 41.7346 55.1743 41.7346Z" fill="#3F3D56"/>
</svg>
