<svg width="477" height="339" viewBox="0 0 477 339" fill="none" xmlns="http://www.w3.org/2000/svg">
<g clip-path="url(#clip0)">
<path d="M238 225.5C299.533 225.5 391 246.175 391 177.5C391 108.825 299.533 132.5 238 132.5C178 39.5004 43 88.6724 43 157.348C43 225.512 174.491 225.504 236.616 225.5L238 225.5Z" fill="#F4D160"/>
<path d="M270.808 150.81C280.475 144.88 292.507 146.07 302.923 150.124C313.339 154.179 322.778 160.821 332.892 165.734C363.802 180.747 401.056 178.326 430.195 159.411C432.951 166.566 429.995 174.749 426.747 181.642C423.5 188.535 419.798 196.005 421.135 203.649C422.846 213.43 432.034 219.294 435.757 228.352C439.291 236.95 437.394 247.048 434.683 256.011C431.972 264.974 428.453 274.004 428.914 283.45C429.375 292.896 435.524 302.884 444 302.892C431.439 305.07 418.63 307.25 406.076 305.018C393.522 302.785 381.035 295.375 375.206 282.767C372.293 276.465 371.169 269.219 367.824 263.191C362.124 252.922 351.187 248.093 340.868 244.454C330.548 240.815 319.504 237.309 312.239 228.357C305.316 219.828 303.123 207.946 299.455 197.19C293.278 179.184 282.548 163.568 268.57 152.238" fill="#6C63FF"/>
<path d="M282.009 106.121C278.615 104.359 274.448 103.781 270.995 105.418C267.542 107.056 265.188 111.252 266.305 114.966C266.811 116.65 267.964 118.306 267.515 120.007C267.169 121.316 265.963 122.18 264.778 122.795C263.594 123.409 262.298 123.926 261.441 124.962C260.585 125.999 260.406 127.783 261.476 128.587C261.829 128.851 262.269 128.977 262.611 129.256C262.903 129.52 263.113 129.879 263.213 130.283C263.313 130.687 263.297 131.116 263.168 131.509C262.883 132.301 262.412 132.993 261.805 133.511C260.59 134.68 258.985 136.019 259.362 137.678C259.502 138.122 259.735 138.521 260.043 138.843C260.351 139.164 260.724 139.398 261.13 139.524C261.973 139.795 262.847 139.924 263.725 139.906L299.572 141.166C300.755 141.266 301.945 141.191 303.111 140.946C303.678 140.83 304.217 140.586 304.695 140.227C305.174 139.869 305.581 139.404 305.891 138.862C306.577 137.444 306.126 135.697 305.279 134.372C304.431 133.048 303.231 132.004 302.24 130.788C301.248 129.572 300.437 128.054 300.612 126.482C300.752 125.224 301.495 124.137 302.029 122.994C302.563 121.851 302.873 120.422 302.181 119.371C301.207 117.889 298.869 118.023 297.762 116.642C296.926 115.6 297.087 114.1 297.004 112.756C296.804 109.524 294.799 106.471 291.945 105.054C290.494 104.358 288.915 104.058 287.339 104.178C285.763 104.298 284.236 104.834 282.882 105.743L282.009 106.121Z" fill="#2F2E41"/>
<path d="M259.356 309.002L253.742 307.119L257.577 282.054L265.863 284.833L259.356 309.002Z" fill="#A0616A"/>
<path d="M259.153 315.556L241.05 309.485L241.119 309.23C241.397 308.197 241.854 307.235 242.465 306.4C243.076 305.565 243.828 304.872 244.679 304.361C245.53 303.85 246.463 303.531 247.424 303.423C248.385 303.314 249.356 303.418 250.282 303.728L250.282 303.728L261.339 307.436L259.153 315.556Z" fill="#2F2E41"/>
<path d="M312.337 309.214L306.474 309.213L303.686 283.977L312.338 283.977L312.337 309.214Z" fill="#A0616A"/>
<path d="M313.831 315.555L294.929 315.554V315.288C294.929 314.209 295.119 313.141 295.489 312.145C295.859 311.149 296.4 310.244 297.084 309.481C297.767 308.719 298.578 308.114 299.471 307.701C300.363 307.289 301.32 307.076 302.286 307.076H302.287L313.832 307.077L313.831 315.555Z" fill="#2F2E41"/>
<path d="M304.199 290.126C303.688 290.125 303.193 289.922 302.804 289.551C302.415 289.181 302.156 288.668 302.076 288.104L293.371 227.502C293.313 227.101 293.14 226.731 292.877 226.45C292.614 226.168 292.276 225.99 291.915 225.943C291.553 225.895 291.187 225.98 290.873 226.186C290.558 226.391 290.313 226.706 290.173 227.081L267.621 287.673C267.411 288.232 267.02 288.683 266.526 288.934C266.031 289.186 265.47 289.22 264.954 289.031L256.809 286C256.301 285.813 255.875 285.422 255.612 284.903C255.35 284.383 255.271 283.773 255.39 283.192L273.871 191.922C273.962 191.482 274.161 191.079 274.446 190.76C274.731 190.44 275.09 190.215 275.483 190.112L300.269 183.69C300.573 183.613 300.889 183.61 301.195 183.681C301.501 183.752 301.789 183.895 302.041 184.101C318.362 197.336 316.983 240.576 313.941 287.527C313.903 288.115 313.673 288.666 313.295 289.077C312.916 289.488 312.415 289.729 311.888 289.754L304.294 290.123C304.262 290.124 304.231 290.126 304.199 290.126Z" fill="#2F2E41"/>
<path d="M283.335 140.856C289.822 140.856 295.08 134.988 295.08 127.748C295.08 120.509 289.822 114.641 283.335 114.641C276.849 114.641 271.591 120.509 271.591 127.748C271.591 134.988 276.849 140.856 283.335 140.856Z" fill="#A0616A"/>
<path d="M283.842 195.685C281.023 195.665 278.243 194.948 275.701 193.585L275.614 193.54L275.579 193.439L265.045 162.979L264.845 157.686C264.778 155.916 265.044 154.151 265.625 152.502C266.207 150.854 267.091 149.36 268.221 148.116C269.351 146.872 270.702 145.906 272.187 145.281C273.672 144.655 275.258 144.383 276.843 144.483L288.026 145.186C290.915 145.369 293.633 146.774 295.626 149.115C297.619 151.456 298.738 154.557 298.755 157.786C299.045 158.409 301.108 163.279 297.066 167.854C296.915 168.896 295.5 179.727 300.837 185.683L300.987 185.85L300.856 186.037C300.771 186.157 293.917 195.683 283.842 195.685Z" fill="#3F3D56"/>
<path d="M299.547 197.983C300.208 197.715 300.808 197.289 301.306 196.735C301.803 196.181 302.185 195.511 302.426 194.774C302.667 194.037 302.759 193.25 302.698 192.468C302.636 191.687 302.422 190.93 302.07 190.251L313.24 175.818L304.435 174.539L295.178 188.441C294.195 189.176 293.487 190.288 293.19 191.567C292.893 192.846 293.026 194.201 293.565 195.378C294.103 196.554 295.01 197.469 296.112 197.949C297.215 198.429 298.437 198.441 299.547 197.983Z" fill="#A0616A"/>
<path d="M306.53 186.843C306.111 186.843 305.7 186.706 305.35 186.448L299.825 182.405C299.361 182.066 299.032 181.54 298.907 180.937C298.783 180.333 298.872 179.7 299.157 179.168L303.156 171.669C303.372 171.263 303.509 170.811 303.558 170.342C303.607 169.873 303.566 169.398 303.438 168.948C303.311 168.498 303.099 168.083 302.818 167.73C302.537 167.378 302.192 167.096 301.806 166.902L290.316 161.153C288.903 160.437 287.75 159.207 287.045 157.664C286.34 156.121 286.126 154.357 286.437 152.66C286.652 151.516 287.1 150.442 287.747 149.523C288.395 148.604 289.223 147.863 290.168 147.36C291.114 146.856 292.15 146.602 293.198 146.619C294.245 146.635 295.275 146.921 296.207 147.454L313.638 157.423C314.814 158.095 315.846 159.044 316.663 160.202C317.48 161.361 318.063 162.704 318.372 164.137C318.681 165.571 318.708 167.063 318.453 168.509C318.198 169.956 317.665 171.324 316.892 172.52L308.275 185.846C308.076 186.155 307.814 186.406 307.511 186.58C307.207 186.753 306.871 186.844 306.53 186.843Z" fill="#3F3D56"/>
<path d="M271.321 125.886C275.03 125.553 278.109 121.418 277.723 117.288C277.68 118.99 278.199 120.651 279.181 121.954C280.163 123.258 281.54 124.113 283.051 124.357C284.752 124.566 286.617 123.991 288.098 124.949C289.738 126.01 290.263 128.587 291.972 129.503C293.623 130.388 295.719 129.181 296.535 127.351C297.351 125.52 297.151 123.321 296.61 121.368C295.839 118.583 294.435 116.067 292.536 114.066C290.636 112.066 288.304 110.648 285.768 109.951C283.231 109.254 280.577 109.301 278.062 110.088C275.547 110.876 273.257 112.376 271.415 114.443C269.856 116.194 268.617 118.425 268.416 120.884C268.216 123.343 269.238 126.01 271.216 127.115L271.321 125.886Z" fill="#2F2E41"/>
<path d="M243.997 89.5768C244.616 89.9491 245.154 90.4683 245.573 91.0978C245.993 91.7273 246.284 92.4518 246.425 93.2203C246.567 93.9888 246.556 94.7826 246.392 95.5457C246.229 96.3089 245.918 97.0228 245.481 97.6373L254.643 113.736L245.764 113.566L238.426 98.3047C237.549 97.4168 236.995 96.201 236.869 94.8877C236.742 93.5744 237.051 92.2549 237.738 91.179C238.425 90.1032 239.441 89.3459 240.595 89.0506C241.748 88.7553 242.959 88.9426 243.997 89.5769V89.5768Z" fill="#A0616A"/>
<path d="M251.381 101.04L263.18 132.154L275.549 155.564C276.072 156.552 276.386 157.66 276.468 158.803C276.55 159.947 276.399 161.096 276.025 162.165C275.651 163.234 275.064 164.193 274.309 164.972C273.554 165.75 272.651 166.327 271.667 166.659C270.106 167.176 268.431 167.053 266.945 166.312C265.458 165.571 264.258 164.262 263.561 162.619L239.72 105.765C239.591 105.456 239.522 105.12 239.518 104.779C239.514 104.438 239.575 104.1 239.697 103.788C239.819 103.475 239.999 103.195 240.226 102.966C240.453 102.738 240.72 102.565 241.011 102.461L248.741 99.6897C248.888 99.6371 249.039 99.6018 249.192 99.5844C249.649 99.5329 250.108 99.6466 250.502 99.9087C250.896 100.171 251.204 100.567 251.381 101.04Z" fill="#3F3D56"/>
<path d="M285.882 34.7505V78.5122C285.882 78.6537 285.832 78.7895 285.742 78.8896C285.652 78.9897 285.531 79.0459 285.404 79.0459C285.277 79.0459 285.156 78.9897 285.066 78.8896C284.976 78.7895 284.926 78.6537 284.926 78.5122V34.7505C284.926 34.6089 284.976 34.4732 285.066 34.3731C285.156 34.273 285.277 34.2168 285.404 34.2168C285.531 34.2168 285.652 34.273 285.742 34.3731C285.832 34.4732 285.882 34.6089 285.882 34.7505Z" fill="#FBEEAC"/>
<path d="M327.4 71.8767L313.875 86.9715C313.785 87.0712 313.664 87.1271 313.537 87.1269C313.411 87.1268 313.289 87.0706 313.2 86.9706C313.11 86.8707 313.06 86.7352 313.06 86.5939C313.059 86.4525 313.11 86.3169 313.199 86.2167L326.724 71.122C326.768 71.0723 326.821 71.0328 326.879 71.0058C326.937 70.9788 326.999 70.9649 327.062 70.9648C327.125 70.9648 327.187 70.9785 327.245 71.0053C327.303 71.0322 327.356 71.0715 327.401 71.1211C327.445 71.1708 327.48 71.2297 327.505 71.2946C327.529 71.3594 327.541 71.4289 327.541 71.4991C327.541 71.5693 327.528 71.6388 327.504 71.7036C327.48 71.7684 327.445 71.8272 327.4 71.8767Z" fill="#FBEEAC"/>
<path d="M243.407 71.8767L256.932 86.9715C257.022 87.0716 257.144 87.1278 257.27 87.1278C257.397 87.1278 257.519 87.0716 257.609 86.9715C257.698 86.8714 257.749 86.7356 257.749 86.5941C257.749 86.4526 257.698 86.3168 257.609 86.2167L244.084 71.122C244.039 71.0723 243.987 71.0328 243.929 71.0058C243.87 70.9788 243.808 70.9649 243.745 70.9648C243.682 70.9648 243.62 70.9785 243.562 71.0053C243.504 71.0322 243.451 71.0715 243.407 71.1211C243.362 71.1708 243.327 71.2297 243.303 71.2946C243.279 71.3594 243.267 71.4289 243.267 71.4991C243.267 71.5693 243.279 71.6388 243.303 71.7036C243.327 71.7684 243.363 71.8272 243.407 71.8767Z" fill="#FBEEAC"/>
</g>
<defs>
<clipPath id="clip0">
<rect width="477" height="339" fill="white"/>
</clipPath>
</defs>
</svg>
