<svg width="334" height="218" viewBox="0 0 334 218" fill="none" xmlns="http://www.w3.org/2000/svg">
<g clip-path="url(#clip0)">
<path opacity="0.5" d="M172.746 39.2053C151.652 42.7671 130.588 41.2402 110.325 39.0192C90.0619 36.7983 69.8489 33.8981 48.7463 34.7723C35.1715 35.3334 20.0539 38.021 10.5755 45.8327C1.45172 53.346 0.0301042 63.485 0.0123709 72.6375C-0.0112734 79.5218 0.585746 86.6453 5.4683 92.1297C8.86127 95.9336 14.0837 98.6596 18.0175 102.171C31.7047 114.369 27.5433 133.574 18.5614 149.904C14.3468 157.565 9.19229 165.099 6.32246 172.94C3.45262 180.781 3.07136 189.183 8.20809 195.577C13.2975 201.918 23.1425 205.492 33.4071 207.344C54.2555 211.106 77.4831 208.77 99.957 205.604C149.696 198.572 198.92 187.609 248.039 176.673C266.212 172.624 284.466 168.557 301.974 162.721C311.698 159.472 321.599 155.429 327.88 149.136C335.86 141.162 336.061 130.255 328.37 123.737C315.466 112.809 286.26 115.234 276.279 102.741C270.787 95.8627 273.178 86.5212 277.55 78.2695C286.922 60.5729 305.036 43.089 302.69 25.4456C301.07 13.3367 288.713 3.31596 272.15 0.705179C254.789 -2.02964 232.492 3.15648 222.497 15.3421C212.22 27.8969 191.372 36.0511 172.746 39.2053Z" fill="#40267E"/>
<path d="M190.168 106.097H106.399V125.48H190.168V106.097Z" fill="#565661"/>
<path opacity="0.1" d="M190.168 106.097H106.399V125.48H190.168V106.097Z" fill="black"/>
<path d="M116.421 126.118L117.01 177.864L108.953 198.189L108.329 126.118H116.421Z" fill="#BCBEC9"/>
<path d="M107.283 109.818L188.841 110.308V124.744H107.283V109.818Z" fill="#565661"/>
<path d="M181.863 126.118L188.841 127.101V197.403L181.863 175.9V126.118Z" fill="#BCBEC9"/>
<path d="M230.798 106.874H191.492V190.336H230.798V106.874Z" fill="#EFEFF0"/>
<path d="M227.654 109.192H194.638V173.348H227.654V109.192Z" fill="#565661"/>
<path opacity="0.1" d="M227.654 109.192H194.638V173.348H227.654V109.192Z" fill="black"/>
<path d="M227.654 110.506H194.638V124.745H227.654V110.506Z" fill="#565661"/>
<path d="M227.654 126.118H194.638V156.36H227.654V126.118Z" fill="#565661"/>
<path d="M227.654 158.227H194.638V188.469H227.654V158.227Z" fill="#565661"/>
<path opacity="0.1" d="M227.654 158.227H194.638V188.469H227.654V158.227Z" fill="black"/>
<path d="M196.015 195.77C197.19 195.77 198.143 194.554 198.143 193.053C198.143 191.552 197.19 190.336 196.015 190.336C194.839 190.336 193.887 191.552 193.887 193.053C193.887 194.554 194.839 195.77 196.015 195.77Z" fill="#565661"/>
<path d="M225.525 195.9C226.701 195.9 227.653 194.683 227.653 193.183C227.653 191.682 226.701 190.466 225.525 190.466C224.35 190.466 223.397 191.682 223.397 193.183C223.397 194.683 224.35 195.9 225.525 195.9Z" fill="#565661"/>
<path d="M106.104 198.189H108.953L108.17 107.597H103.843L106.104 198.189Z" fill="#EFEFF0"/>
<path d="M188.842 106.874V197.403H191.493V107.597L188.842 106.874Z" fill="#EFEFF0"/>
<path d="M108.309 123.858V127.101H188.841V124.744L108.309 123.858Z" fill="#EFEFF0"/>
<path d="M113.768 100.787H215.864L230.701 105.695V108.542L103.353 107.562V104.665L113.768 100.787Z" fill="white"/>
<path d="M103.353 104.665L230.701 105.695V108.542L103.353 107.562V104.665Z" fill="#BCBEC9"/>
<path d="M114.888 138.427L114.296 138.339C114.296 138.312 114.296 138.289 114.296 138.265C114.279 138.126 114.258 137.99 114.237 137.852C114.48 138.044 114.71 138.235 114.923 138.427H114.888Z" fill="url(#paint0_linear)"/>
<path d="M102.043 184.03C102.428 183.942 102.818 183.868 103.208 183.815C105.887 183.434 108.62 183.836 111.076 184.973C110.827 186.798 110.582 188.685 111.108 190.448C111.475 191.689 112.21 192.811 112.367 194.104C112.762 194.172 113.13 194.348 113.43 194.613C113.73 194.878 113.951 195.222 114.067 195.605C114.18 195.944 114.237 196.299 114.235 196.656C114.232 197.098 114.176 197.538 114.069 197.967C114.034 198.31 113.865 198.625 113.6 198.846C113.335 199.067 112.995 199.175 112.651 199.149C110.363 199.409 108.12 198.508 105.992 197.625L101.854 195.906C101.37 195.705 100.882 195.501 100.418 195.253C99.5377 194.778 98.7563 194.14 98.1155 193.372C97.98 193.235 97.8849 193.063 97.8406 192.876C97.7638 192.356 98.3726 192.046 98.7598 191.694C98.8732 191.587 98.9725 191.466 99.0553 191.334C99.5134 190.643 99.5578 189.689 99.8326 188.874C100.483 186.94 102.493 185.693 103.202 183.806C103.24 183.703 103.276 183.599 103.305 183.493" fill="#A26565"/>
<path opacity="0.1" d="M114.235 196.656C114.232 197.098 114.176 197.538 114.07 197.967C114.034 198.31 113.865 198.625 113.6 198.846C113.335 199.066 112.995 199.175 112.651 199.149C110.363 199.408 108.12 198.508 105.992 197.625L101.854 195.906C101.37 195.705 100.882 195.501 100.418 195.253C99.5377 194.778 98.7563 194.139 98.1155 193.372C97.98 193.235 97.8849 193.063 97.8406 192.876C97.7638 192.356 98.3726 192.046 98.7598 191.694C98.8732 191.587 98.9725 191.466 99.0553 191.334C100.196 191.579 101.612 192.297 102.484 192.574C103.357 192.812 104.196 193.163 104.978 193.617C106.066 194.314 106.849 195.389 107.771 196.275C108.693 197.161 109.884 197.967 111.17 197.858C111.85 197.756 112.505 197.529 113.103 197.191L114.235 196.656Z" fill="black"/>
<path d="M109.391 154.686C109.468 154.954 109.461 155.239 109.371 155.503C109.281 155.767 109.113 155.997 108.888 156.162C108.501 156.402 108.002 156.369 107.617 156.629C107.142 156.963 107.074 157.624 106.991 158.197C106.695 160.167 105.717 161.954 104.881 163.764C104.044 165.575 103.338 167.551 103.645 169.518C103.855 170.852 104.511 172.276 103.896 173.478C103.746 173.773 103.521 174.036 103.35 174.323C102.507 175.728 102.986 177.509 102.954 179.146C102.966 179.327 102.926 179.509 102.838 179.668C102.709 179.819 102.55 179.942 102.371 180.029C102.071 180.249 101.825 180.534 101.65 180.863C101.476 181.192 101.378 181.556 101.363 181.928C101.339 182.671 101.428 183.414 101.629 184.131C101.662 184.42 101.79 184.69 101.993 184.899C102.228 185.054 102.506 185.133 102.788 185.123C104.645 185.273 106.466 185.716 108.185 186.434C109.305 186.901 110.393 187.486 111.584 187.71C111.699 187.746 111.82 187.758 111.94 187.745C112.06 187.733 112.176 187.696 112.281 187.636C112.431 187.501 112.534 187.323 112.577 187.126C113.035 185.619 113.499 184.066 113.342 182.501C113.274 181.827 113.094 181.169 113.047 180.495C112.84 177.837 114.64 175.439 115.21 172.816C115.467 171.635 115.467 170.412 115.651 169.219C116.147 165.95 117.95 163.017 118.644 159.783C118.741 159.18 118.891 158.587 119.094 158.011C119.611 156.759 120.808 155.743 120.835 154.387C120.851 154.089 120.772 153.794 120.61 153.543C120.331 153.237 119.961 153.03 119.555 152.952C117.949 152.511 116.315 152.181 114.663 151.966C113.907 151.817 113.134 151.764 112.364 151.806C111.364 151.924 110.403 152.263 109.55 152.799C108.409 153.501 109.142 153.67 109.391 154.686Z" fill="#454B69"/>
<path opacity="0.05" d="M109.391 154.686C109.468 154.954 109.461 155.239 109.371 155.503C109.281 155.767 109.113 155.997 108.888 156.162C108.501 156.402 108.002 156.369 107.617 156.629C107.142 156.963 107.074 157.624 106.991 158.197C106.695 160.167 105.717 161.954 104.881 163.764C104.044 165.575 103.338 167.551 103.645 169.518C103.855 170.852 104.511 172.276 103.896 173.478C103.746 173.773 103.521 174.036 103.35 174.323C102.507 175.728 102.986 177.509 102.954 179.146C102.966 179.327 102.926 179.509 102.838 179.668C102.709 179.819 102.55 179.942 102.371 180.029C102.071 180.249 101.825 180.534 101.65 180.863C101.476 181.192 101.378 181.556 101.363 181.928C101.339 182.671 101.428 183.414 101.629 184.131C101.662 184.42 101.79 184.69 101.993 184.899C102.228 185.054 102.506 185.133 102.788 185.123C104.645 185.273 106.466 185.716 108.185 186.434C109.305 186.901 110.393 187.486 111.584 187.71C111.699 187.746 111.82 187.758 111.94 187.745C112.06 187.733 112.176 187.696 112.281 187.636C112.431 187.501 112.534 187.323 112.577 187.126C113.035 185.619 113.499 184.066 113.342 182.501C113.274 181.827 113.094 181.169 113.047 180.495C112.84 177.837 114.64 175.439 115.21 172.816C115.467 171.635 115.467 170.412 115.651 169.219C116.147 165.95 117.95 163.017 118.644 159.783C118.741 159.18 118.891 158.587 119.094 158.011C119.611 156.759 120.808 155.743 120.835 154.387C120.851 154.089 120.772 153.794 120.61 153.543C120.331 153.237 119.961 153.03 119.555 152.952C117.949 152.511 116.315 152.181 114.663 151.966C113.907 151.817 113.134 151.764 112.364 151.806C111.364 151.924 110.403 152.263 109.55 152.799C108.409 153.501 109.142 153.67 109.391 154.686Z" fill="black"/>
<path d="M103.607 199.196H101.086L99.4366 165.339L99.3213 163.413L101.464 162.66L101.609 164.707L103.607 199.196Z" fill="#565661"/>
<path opacity="0.1" d="M101.609 164.707L99.4366 165.339L99.3213 163.413L101.464 162.66L101.609 164.707Z" fill="black"/>
<path d="M135.239 206.358L131.081 206.86L111.923 163.413L106.757 163.035L97.6832 165.681L95.9188 217.409H91.7603L93.3977 163.791L83.4405 164.045L65.6717 208.245H61.8916L80.5795 156.588L81.3006 154.597L109.151 153.643L116.093 157.533L116.182 157.757L135.239 206.358Z" fill="#565661"/>
<path opacity="0.1" d="M116.183 157.757C110.198 159.559 103.985 161.526 103.985 161.526C103.985 161.526 98.3192 163.501 95.9193 161.526C95.6167 161.29 95.2785 161.103 94.9174 160.973C95.2288 161.196 95.5651 161.381 95.9193 161.526L80.5801 156.585L81.2983 154.597L109.151 153.643L116.094 157.533L116.183 157.757Z" fill="black"/>
<path d="M87.8539 149.184L99.1944 146.664C99.1944 146.664 126.291 151.703 128.306 153.717C128.306 153.717 106.631 158.123 104.237 159.624C101.843 161.124 87.5998 162.784 87.8539 149.184Z" fill="white"/>
<path d="M82.9767 120.864C82.0901 123.672 79.6695 126.203 76.7228 126.324C76.5084 126.35 76.2914 126.311 76.0992 126.212C75.7298 125.982 75.7209 125.441 75.8716 125.031C76.0224 124.62 76.2854 124.251 76.3268 123.82C76.3356 123.732 76.3296 123.643 76.309 123.557C76.2322 123.206 75.9455 122.893 75.6086 122.967C75.838 122.783 75.9908 122.521 76.0373 122.231C76.0837 121.941 76.0205 121.644 75.8598 121.398C75.7261 121.247 75.6054 121.085 75.4992 120.914C75.2539 120.412 75.6352 119.848 75.7948 119.31C76.1229 118.129 75.2894 116.948 75.2214 115.716C75.1623 114.614 75.7209 113.578 75.8598 112.485C76.0815 110.713 75.2007 109.015 75.0973 107.246C75.0263 106.011 75.3308 104.789 75.6706 103.598C75.9662 102.535 76.3002 101.46 76.3209 100.35C76.3209 99.5433 76.182 98.7459 76.1435 97.9426C76.0822 97.2083 76.2158 96.4707 76.5307 95.8044C76.7353 95.4126 77.0838 95.1152 77.5031 94.9745C78.4725 94.6496 79.1079 95.1546 79.2498 96.0731C79.4863 97.6355 79.3503 99.2303 79.6606 100.799C79.9476 102.265 80.3823 103.699 80.9581 105.078C81.4812 106.324 82.1167 107.529 82.5186 108.82C82.8213 109.884 83.0377 110.97 83.1659 112.069C83.5619 115.019 83.8723 118.055 82.9767 120.864Z" fill="#F4D160"/>
<path d="M150.293 192.347C149.919 192.874 149.438 193.315 148.881 193.643C148.324 193.971 147.704 194.177 147.062 194.249C145.78 194.409 144.447 194.087 143.202 194.438C143.01 194.47 142.828 194.549 142.673 194.668C142.518 194.787 142.396 194.942 142.316 195.12C142.285 195.36 142.266 195.602 142.26 195.844C142.115 196.632 141.077 196.81 140.27 196.804L136.942 196.783C136.251 196.783 135.485 196.745 134.989 196.266C134.753 196.005 134.62 195.667 134.614 195.315C134.609 194.963 134.731 194.621 134.959 194.352C135.063 194.23 135.189 194.13 135.332 194.057C135.124 193.988 134.939 193.863 134.798 193.696C134.658 193.529 134.566 193.325 134.534 193.109C134.473 192.675 134.494 192.233 134.596 191.807C134.596 190.572 134.891 188.505 135.76 187.539C136.827 186.337 138.677 184.784 140.288 184.462C140.832 184.357 141.393 184.382 141.926 184.533C142.458 184.684 142.948 184.958 143.356 185.333C144.119 186.042 144.674 187.152 145.72 187.276C146.291 187.347 146.841 187.078 147.405 186.981C148.047 186.898 148.698 187.016 149.27 187.318C149.842 187.62 150.307 188.091 150.6 188.667C150.743 188.959 150.843 189.271 150.896 189.592C151.052 190.553 150.836 191.538 150.293 192.347Z" fill="#A26565"/>
<path opacity="0.1" d="M150.292 192.347C149.918 192.874 149.437 193.315 148.88 193.643C148.323 193.971 147.704 194.177 147.061 194.249C145.779 194.408 144.446 194.087 143.202 194.438C143.009 194.47 142.827 194.549 142.672 194.668C142.518 194.787 142.395 194.942 142.315 195.12C142.284 195.36 142.265 195.602 142.259 195.844C142.114 196.632 141.077 196.81 140.27 196.804L136.942 196.783C136.25 196.783 135.485 196.745 134.988 196.266C134.752 196.005 134.619 195.667 134.613 195.315C134.608 194.963 134.731 194.621 134.959 194.352C136.88 194.273 138.768 194.352 140.683 193.957C141.461 193.8 142.226 193.593 143.012 193.484C144.715 193.242 146.527 193.449 148.09 192.728C149.393 192.137 150.327 190.935 150.88 189.594C151.04 190.553 150.83 191.537 150.292 192.347Z" fill="black"/>
<path d="M141.512 187.678C140.329 188.593 138.943 189.308 137.454 189.385C135.964 189.462 134.383 188.794 133.653 187.501C132.586 185.602 133.532 182.961 132.225 181.219C131.817 180.672 131.229 180.286 130.798 179.757C130.366 179.228 130.118 178.434 130.502 177.873C130.038 178.05 129.548 177.601 129.412 177.123C129.276 176.644 129.361 176.13 129.279 175.646C129.063 174.361 127.801 173.537 127.195 172.397C126.589 171.257 126.672 169.777 126.604 168.428C126.453 165.139 125.228 161.991 123.116 159.464C122.714 158.986 122.2 158.499 121.574 158.522C121.683 157.441 120.962 156.408 120.028 155.864C119.094 155.321 117.983 155.138 116.901 155.031C105.986 153.956 94.6131 158.011 84.1918 154.6C81.2924 153.652 78.4965 152.066 76.7232 149.579C76.0324 148.633 75.5382 147.558 75.2697 146.418C75.0012 145.278 74.9638 144.095 75.1597 142.94V142.899C75.5705 140.802 76.6788 140.285 78.5142 139.328C80.633 138.209 82.8477 137.281 85.1317 136.555C89.565 135.17 94.3382 134.671 98.9134 135.687C101.05 136.165 103.11 136.957 105.25 137.42C106.092 137.603 106.941 137.733 107.795 137.843C109.122 138.008 110.455 138.117 111.791 138.271C116.062 138.762 120.269 139.708 124.34 141.091C125.856 141.605 127.372 142.193 128.676 143.123C129.707 143.872 130.578 144.817 131.24 145.905C131.902 146.993 132.34 148.202 132.53 149.461C132.654 150.33 132.657 151.233 132.846 152.075C133.025 152.782 133.262 153.474 133.555 154.142C136.081 160.382 138.144 166.798 139.729 173.339C139.819 173.825 139.986 174.294 140.223 174.727C140.601 175.339 141.252 175.749 141.633 176.361C142.519 177.802 141.665 179.813 142.451 181.313C142.723 181.833 143.176 182.244 143.448 182.763C144.334 184.468 143.025 186.505 141.512 187.678Z" fill="#454B69"/>
<path opacity="0.1" d="M126.409 153.744C126.829 153.411 127.191 153.012 127.482 152.562C127.773 152.11 127.889 151.567 127.807 151.035C127.922 151.708 127.878 152.398 127.678 153.05C127.479 153.703 127.129 154.299 126.657 154.792C125.915 155.551 124.523 156.295 123.438 156.035C123.592 155.167 125.72 154.328 126.409 153.744Z" fill="black"/>
<path opacity="0.1" d="M107.942 139.024C107.853 139.341 107.686 139.63 107.457 139.866C107.228 140.102 106.944 140.278 106.63 140.377C106 140.569 105.34 140.646 104.682 140.604H104.091C96.3356 140.433 88.4975 138.714 80.9224 140.353C80.0095 140.541 79.1138 140.805 78.2447 141.142C77.1374 141.578 76.1007 142.175 75.168 142.914V142.872C75.5788 140.775 76.6871 140.259 78.5225 139.302C80.6394 138.192 82.851 137.273 85.1311 136.555C89.5644 135.17 94.3376 134.671 98.9128 135.687C101.05 136.165 103.11 136.957 105.249 137.42C106.092 137.603 106.94 137.733 107.794 137.843C107.96 138.213 108.011 138.624 107.942 139.024Z" fill="black"/>
<path d="M107.942 138.602C107.854 138.919 107.687 139.209 107.458 139.446C107.229 139.682 106.944 139.858 106.63 139.957C106 140.15 105.34 140.226 104.682 140.182H104.091C96.3356 140.01 88.4975 138.291 80.9225 139.931C80.01 140.119 79.1144 140.382 78.2448 140.716C77.0852 141.178 76.0036 141.816 75.038 142.606C74.8114 141.984 74.5858 141.361 74.3612 140.737C74.0893 139.993 74.9523 139.827 75.1178 139.16C75.2271 138.708 75.041 138.194 74.9464 137.713C74.9221 137.595 74.9063 137.475 74.8991 137.355C74.8459 136.289 75.2272 135.675 76.102 135.099C78.697 133.386 81.8623 132.211 84.8238 131.327C86.3982 130.83 88.0245 130.515 89.6709 130.388C91.9999 130.252 94.3259 130.684 96.5928 131.23C99.3799 131.918 102.137 132.828 104.608 134.284C105.82 134.99 107.002 135.876 107.655 137.134C107.916 137.576 108.017 138.094 107.942 138.602Z" fill="#A26565"/>
<path opacity="0.1" d="M82.9771 120.864C82.0904 123.672 79.6698 126.204 76.7231 126.325C76.5087 126.35 76.2917 126.311 76.0995 126.212C75.7301 125.982 75.7212 125.442 75.8719 125.031C76.0227 124.62 76.2857 124.251 76.3271 123.82C76.3359 123.732 76.3299 123.643 76.3094 123.557C77.8728 121.354 79.389 119.127 79.989 116.519C80.1105 116.07 80.1475 115.603 80.0984 115.14C80.0186 114.609 79.7496 114.127 79.6018 113.613C79.3417 112.704 79.4629 111.741 79.5368 110.799C79.8446 106.65 79.1513 102.489 77.5152 98.6633C77.1162 97.7419 76.6611 96.8086 76.5222 95.8251C76.7268 95.4333 77.0753 95.1359 77.4945 94.9952C78.4639 94.6704 79.0994 95.1754 79.2413 96.0939C79.4777 97.6562 79.3417 99.251 79.6521 100.819C79.939 102.286 80.3737 103.72 80.9496 105.099C81.4727 106.345 82.1081 107.55 82.5101 108.841C82.8127 109.904 83.0292 110.991 83.1573 112.089C83.5623 115.019 83.8726 118.055 82.9771 120.864Z" fill="black"/>
<path opacity="0.1" d="M107.942 138.602C107.854 138.919 107.687 139.209 107.458 139.446C107.229 139.683 106.944 139.858 106.63 139.957C106 140.15 105.34 140.226 104.682 140.182H104.091C101.567 138.506 98.5316 137.774 95.5202 138.114C94.5566 138.23 93.5931 138.454 92.6296 138.365C90.6819 138.188 89.1037 136.788 87.3688 135.893C85.3946 134.919 83.1742 134.557 80.9924 134.853C78.8107 135.148 76.7671 136.089 75.124 137.553L74.9555 137.701C74.9312 137.583 74.9154 137.464 74.9082 137.344C74.855 136.277 75.2363 135.663 76.1111 135.087C78.7061 133.374 81.8714 132.199 84.8329 131.316C86.4073 130.818 88.0337 130.503 89.68 130.377C92.009 130.241 94.335 130.672 96.6019 131.218C99.389 131.906 102.146 132.816 104.617 134.272C105.82 134.99 107.002 135.876 107.656 137.134C107.916 137.576 108.017 138.094 107.942 138.602Z" fill="black"/>
<path d="M114.571 106.25L114.53 106.357C113.868 108.073 112.65 109.523 111.87 111.194C110.886 113.312 110.643 115.686 110.425 118.014C110.236 120.007 110.049 122.013 110.2 124.012C110.578 128.938 112.987 133.61 113.631 138.442C113.79 139.558 113.831 140.688 113.753 141.812C113.699 142.524 113.569 143.289 113.097 143.814C112.624 144.34 111.704 144.547 111.196 144.042C111.424 143.608 111.654 143.176 111.885 142.742C110.534 141.694 108.501 142.447 106.922 141.791C106.228 141.496 105.672 140.964 105.09 140.489C103.761 139.409 102.23 138.606 100.586 138.126C98.9418 137.646 97.2184 137.5 95.517 137.695C94.5535 137.813 93.59 138.038 92.6264 137.949C90.6787 137.769 89.1005 136.372 87.3656 135.477C85.3915 134.503 83.1714 134.141 80.9899 134.436C78.8083 134.731 76.7646 135.671 75.1208 137.134C74.707 137.518 74.1514 137.967 73.643 137.724C73.4465 137.604 73.2878 137.431 73.1849 137.225C71.249 133.921 72.6736 129.659 74.7425 126.44C76.8113 123.22 79.5511 120.252 80.4023 116.522C80.5252 116.073 80.5623 115.606 80.5117 115.143C80.4319 114.611 80.1629 114.13 80.0151 113.616C79.7551 112.706 79.8762 111.744 79.9501 110.802C80.2602 106.653 79.569 102.49 77.9344 98.6632C77.4616 97.5616 76.9 96.4452 76.9 95.2491C76.9 93.3649 78.2507 91.8026 79.3679 90.2875C80.6535 88.545 81.7323 86.6164 83.3608 85.1841C84.9036 83.8225 87.138 82.9897 89.0473 83.6808C92.2915 82.8938 95.6308 82.5686 98.9661 82.715C100.119 82.7682 101.31 82.8893 102.321 83.4475C103.402 84.0382 104.18 85.0896 105.244 85.7186C106.021 86.1823 106.917 86.4008 107.762 86.7257C110.096 87.6366 112.023 89.3586 113.188 91.5751C114.37 93.864 114.666 96.4955 114.926 99.059C115.174 101.472 115.411 103.979 114.571 106.25Z" fill="#F4D160"/>
<path opacity="0.1" d="M110.201 124.012C110.579 128.938 112.988 133.611 113.632 138.442C112.344 137.352 110.55 136.257 110.31 134.99C110.044 133.619 109.193 131.824 109.051 130.439C108.909 129.054 109.882 127.361 108.862 126.41C108.365 125.947 109.687 126.076 109.202 125.601C108.111 124.541 107.842 122.908 107.774 121.392C107.659 118.711 107.999 116 107.505 113.362C107.21 111.735 106.592 110.184 106.099 108.604C105.525 106.764 105.111 104.88 104.698 102.993C104.29 101.315 103.994 99.6122 103.811 97.8954C103.684 96.4188 103.743 94.8535 104.402 93.5067C105.061 92.16 106.394 91.0673 107.89 91.0879C112.89 91.1529 112.027 97.9279 113.127 101.059C113.567 102.305 114.161 103.51 114.401 104.809C114.488 105.319 114.535 105.834 114.543 106.351C113.88 108.067 112.663 109.517 111.883 111.189C110.898 113.306 110.656 115.681 110.437 118.008C110.236 120.007 110.05 122.013 110.201 124.012Z" fill="black"/>
<path d="M113.451 100.982C113.892 102.228 114.486 103.433 114.725 104.732C115.124 106.909 114.506 109.221 115.177 111.33C115.352 111.78 115.498 112.241 115.615 112.709C115.73 113.38 115.597 114.065 115.597 114.747C115.597 115.846 115.943 116.909 116.25 117.963C117.29 121.546 117.978 125.222 118.304 128.938C118.353 129.937 118.511 130.927 118.774 131.891C118.898 132.218 119.005 132.552 119.093 132.89C119.173 133.341 119.192 133.801 119.15 134.257C119.07 135.704 118.907 137.157 119.07 138.599C119.232 140.04 119.758 141.502 120.843 142.467C119.874 142.677 118.848 142.887 117.902 142.577C116.572 142.143 115.774 140.805 115.098 139.588C114.24 138.034 110.983 136.635 110.647 134.889C110.383 133.522 109.532 131.726 109.39 130.338C109.249 128.95 110.218 127.264 109.198 126.313C108.705 125.849 110.026 125.976 109.538 125.503C108.451 124.443 108.182 122.81 108.114 121.292C107.998 118.613 108.335 115.902 107.845 113.265C107.549 111.637 106.931 110.087 106.438 108.504C105.864 106.667 105.451 104.782 105.037 102.892C104.629 101.215 104.332 99.5118 104.15 97.7948C104.023 96.3181 104.079 94.7499 104.741 93.4032C105.403 92.0564 106.736 90.9666 108.229 90.9843C113.209 91.0729 112.352 97.8509 113.451 100.982Z" fill="#F4D160"/>
<path opacity="0.1" d="M99.1995 102.136C99.6665 102.683 100.266 103.282 100.973 103.176C100.919 103.261 100.834 103.322 100.737 103.345C100.639 103.368 100.536 103.352 100.45 103.3C100.28 103.188 100.144 103.032 100.057 102.848L99.0458 101.144C98.9128 100.923 97.9966 99.632 97.7719 100.376C97.6833 100.692 98.9719 101.871 99.1995 102.136Z" fill="black"/>
<path opacity="0.1" d="M98.6556 106.386C98.6265 105.829 98.3916 105.303 97.9965 104.909C97.6412 104.587 97.2266 104.338 96.7758 104.174C95.6675 103.719 94.3552 103.353 93.1523 103.412C93.5898 104.05 94.9936 104.431 95.6971 104.791C96.6941 105.305 97.6802 105.837 98.6556 106.386Z" fill="black"/>
<path opacity="0.1" d="M101.804 118.483C101.6 119.995 100.361 121.141 99.1082 122.027C97.8551 122.913 96.4482 123.675 95.6295 124.957C95.0621 125.843 94.8079 126.871 94.3261 127.795C93.7941 128.814 92.9991 129.671 92.3637 130.628C91.7282 131.585 91.2317 132.727 91.4268 133.862C91.4296 133.914 91.4431 133.965 91.4665 134.012C91.4898 134.058 91.5226 134.1 91.5627 134.133C91.6236 134.159 91.6901 134.169 91.7558 134.161C91.8215 134.154 91.8842 134.13 91.9381 134.092C93.2267 133.419 93.735 131.88 94.2759 130.548C94.8437 129.203 95.483 127.89 96.1911 126.614C96.5103 126.023 96.862 125.379 97.4561 125.052C97.8628 124.882 98.2793 124.737 98.7033 124.618C99.3047 124.342 99.8324 123.928 100.243 123.41C101.857 121.486 102.699 119.033 102.608 116.525C102.59 115.997 102.56 113.451 101.765 114.236C100.97 115.022 101.94 117.456 101.804 118.483Z" fill="black"/>
<path d="M103.751 60.4879C106.293 61.5954 108.48 64.0319 108.4 66.7933C108.332 69.6935 105.903 72.4254 106.739 75.2045C107.224 76.8171 108.684 77.898 109.839 79.1236C114.24 83.7782 114.231 91.9029 109.816 96.5485C108.125 98.3205 105.953 99.5816 104.165 101.274C97.8606 107.21 97.5916 117.479 100.967 125.45C98.3808 126.009 95.7449 126.306 93.0992 126.336C91.8608 126.336 90.3447 126.127 89.8954 124.972C89.4816 123.906 90.191 122.464 89.3752 121.676C88.991 121.307 88.4147 121.256 87.8975 121.171C84.5695 120.633 81.8386 117.978 80.5914 114.851C79.3441 111.723 79.4091 108.203 80.1244 104.912C80.6327 102.535 81.4278 99.9183 80.2485 97.7919C78.7707 95.1161 74.5207 93.988 74.5857 90.9283C74.6389 88.4209 77.5974 87.2011 79.2761 85.3375C82.3736 81.9057 80.8987 76.5808 80.8928 71.9558C80.8928 67.8861 82.3174 63.6864 85.3498 60.9752C89.8599 56.9084 98.5463 58.2286 103.751 60.4879Z" fill="#A26565"/>
<g opacity="0.1">
<path opacity="0.1" d="M80.7341 94.7589C79.4366 92.4198 76.0289 91.2621 75.2368 88.9614C74.8405 89.4983 74.6178 90.1434 74.5984 90.8102C74.5334 93.8699 78.7775 94.9981 80.2612 97.6768C80.7484 98.6251 80.9535 99.6931 80.8523 100.754C81.3193 98.6987 81.7301 96.5545 80.7341 94.7589Z" fill="black"/>
<path opacity="0.1" d="M107.08 71.4185C107.612 69.868 108.384 68.3027 108.422 66.6932C108.427 66.5188 108.422 66.3442 108.407 66.1704C107.813 67.9483 106.903 69.6731 107.08 71.4185Z" fill="black"/>
<path opacity="0.1" d="M81.2422 79.6791C82.2589 76.4688 81.3811 72.4877 81.3782 68.9259C81.3782 68.4947 81.3959 68.0606 81.4284 67.6294C81.0782 69.0059 80.9015 70.4206 80.9023 71.8409C80.9083 74.3837 81.3545 77.1422 81.2422 79.6791Z" fill="black"/>
<path opacity="0.1" d="M110.31 93.5275C108.62 95.2995 106.447 96.5606 104.659 98.2529C101.467 101.256 99.8268 105.371 99.416 109.733C100.179 106.484 101.718 103.492 104.186 101.168C105.96 99.4845 108.147 98.2293 109.837 96.4425C111.848 94.2526 113.016 91.4205 113.133 88.4507C112.622 90.3485 111.653 92.0919 110.31 93.5275Z" fill="black"/>
<path opacity="0.1" d="M93.5938 123.306C92.3555 123.306 90.8393 123.094 90.39 121.939C89.9762 120.876 90.6856 119.434 89.8698 118.643C89.4856 118.274 88.9063 118.224 88.3921 118.138C85.0671 117.603 82.3362 114.945 81.0889 111.821C80.1698 109.511 79.9717 106.992 80.2023 104.505C80.1786 104.603 80.1579 104.7 80.1372 104.8C79.4338 108.091 79.3599 111.614 80.6042 114.742C81.8485 117.869 84.5824 120.524 87.9074 121.059C88.4335 121.144 89.0127 121.198 89.3851 121.564C90.2097 122.355 89.4915 123.797 89.9053 124.86C90.3546 126.015 91.8707 126.242 93.1091 126.227C95.7548 126.197 98.3907 125.9 100.977 125.341C100.612 124.48 100.293 123.599 100.022 122.704C97.8996 123.081 95.7495 123.282 93.5938 123.306Z" fill="black"/>
</g>
<path opacity="0.1" d="M103.273 110.427C104.003 110.976 104.795 108.882 104.343 108.359C104.222 108.495 103.161 110.35 103.273 110.427Z" fill="black"/>
<path opacity="0.1" d="M106.385 148.33C107.245 148.035 108.158 147.739 108.72 147.031C109.184 146.461 109.565 144.198 108.584 145.282C107.75 146.212 107.357 147.438 106.385 148.33Z" fill="black"/>
<path opacity="0.1" d="M115.143 145.959C115.039 146.656 114.847 147.379 114.353 147.881C114.262 147.976 114.058 148.035 114.031 147.908C114.583 147.614 115.095 147.253 115.556 146.833C116.555 145.843 116.691 143.407 115.169 142.76C115.154 143.829 115.305 144.872 115.143 145.959Z" fill="black"/>
<path d="M125.655 141.567C125.655 141.567 117.267 138.274 114.235 138.613C111.203 138.953 117.669 143.729 117.669 143.729L121.535 146.334C121.535 146.334 123.9 145.448 124.056 145.38C124.213 145.312 125.655 141.567 125.655 141.567Z" fill="#454B69"/>
<path d="M67.9424 106.239C67.9424 106.239 74.2436 102.588 82.5605 107.125C90.8774 111.661 92.2636 138.357 92.2636 138.357C92.2636 138.357 88.8617 165.554 101.978 159.503C101.978 159.503 125.918 152.075 128.315 153.711C128.315 153.711 130.585 153.711 126.048 154.718C121.512 155.725 103.985 161.275 103.985 161.275C103.985 161.275 98.3195 163.254 95.9196 161.275C93.5197 159.296 86.719 161.529 85.8352 147.926C85.2504 139.353 84.1987 130.819 82.6846 122.361L80.3468 115.435L67.9424 106.239Z" fill="#565661"/>
<path d="M67.1854 148.301C67.1854 148.301 69.9577 120.722 65.412 110.772C61.4575 102.101 76.7495 106.156 80.7395 107.337C81.357 107.522 81.8955 107.906 82.2705 108.43C84.6349 111.753 93.1173 125.069 90.6169 142.887C90.6169 142.887 89.6091 158.756 95.9103 161.272L76.4953 155.022C74.92 154.514 73.3211 154.092 71.7073 153.726C69.6503 153.259 66.2987 151.933 67.1854 148.301Z" fill="white"/>
<path d="M205.271 199.787H207.793L209.445 165.929L209.557 164.004L207.414 163.25L207.272 165.297L205.271 199.787Z" fill="#565661"/>
<path opacity="0.1" d="M207.272 165.297L209.445 165.929L209.557 164.004L207.414 163.25L207.272 165.297Z" fill="black"/>
<path d="M184.222 186.712C184.16 187.176 184.041 187.63 183.867 188.065C183.688 188.632 183.303 189.112 182.788 189.411C182.442 189.554 182.072 189.627 181.698 189.627C180.306 189.71 178.834 189.689 177.637 188.98C177.127 188.652 176.659 188.262 176.245 187.819C173.555 185.149 171.11 182.243 168.939 179.137C168.575 178.614 168.2 177.997 168.362 177.365C171.175 176.585 173.845 175.364 176.274 173.747C176.609 173.49 176.985 173.29 177.386 173.156C178.071 173.01 178.777 172.984 179.472 173.079C180.143 173.188 180.173 173.209 180.43 173.965C180.855 175.244 180.784 176.623 181.263 177.902C181.567 178.609 181.937 179.285 182.369 179.922C183.604 181.987 184.553 184.423 184.222 186.712Z" fill="#A26565"/>
<path opacity="0.1" d="M184.222 186.712C184.16 187.176 184.041 187.63 183.867 188.064C183.688 188.632 183.303 189.112 182.788 189.411C182.442 189.554 182.072 189.627 181.698 189.627C180.306 189.709 178.834 189.689 177.637 188.98C177.127 188.652 176.659 188.262 176.245 187.819C173.555 185.149 171.11 182.243 168.939 179.136C168.575 178.614 168.2 177.996 168.362 177.364C169.28 177.11 170.183 176.809 171.07 176.461L171.114 176.493C172.021 177.14 172.68 178.067 173.322 178.977L175.391 181.886C175.759 182.457 176.195 182.983 176.688 183.451C177.299 183.942 177.975 184.347 178.695 184.656C179.667 185.126 180.64 185.595 181.65 185.973C182.304 186.236 183.409 186.34 184.222 186.712Z" fill="black"/>
<path d="M186.131 155.173C185.927 155.664 185.68 156.135 185.392 156.582C182.645 161.191 180.526 166.147 179.091 171.316C178.683 171.225 178.452 171.78 178.455 172.202C178.458 172.625 178.455 173.156 178.065 173.31C177.95 173.354 177.82 173.354 177.708 173.404C177.459 173.517 177.388 173.833 177.353 174.104L177.004 176.662C176.883 177.548 176.777 178.508 177.211 179.29C177.511 179.756 177.899 180.157 178.355 180.472L184.124 185.02C184.36 185.206 184.653 185.404 184.937 185.3C185.584 185.064 185.011 183.907 185.528 183.437C185.871 183.115 186.415 183.357 186.89 183.319C187.511 183.272 187.981 182.702 188.138 182.102C188.248 181.491 188.259 180.867 188.17 180.253C188.131 179.973 188.164 179.688 188.265 179.423C188.441 179.143 188.684 178.911 188.971 178.747C189.972 178.016 190.779 177.052 191.32 175.938C191.862 174.824 192.122 173.594 192.077 172.356C192.03 171.979 192.044 171.597 192.119 171.225C192.239 170.884 192.42 170.568 192.654 170.291C194.749 167.459 196.496 164.385 198.231 161.316C199.23 159.544 200.247 157.746 200.595 155.749C200.626 155.675 200.638 155.595 200.632 155.515C200.626 155.435 200.601 155.357 200.56 155.288C200.518 155.22 200.462 155.161 200.394 155.118C200.326 155.075 200.249 155.049 200.17 155.04C199.304 154.77 198.421 154.559 197.527 154.408C194.811 153.859 192.19 153.011 189.547 152.196C186.905 151.381 186.926 153.041 186.131 155.173Z" fill="#454B69"/>
<path d="M173.639 206.948L177.8 207.45L196.955 164.003L202.121 163.625L211.198 166.272L212.959 218H217.118L215.48 164.381L225.438 164.635L243.206 208.836H246.986L228.298 157.178L227.58 155.188L199.727 154.234L192.785 158.123L192.696 158.348L173.639 206.948Z" fill="#565661"/>
<path opacity="0.1" d="M192.695 158.348C198.68 160.149 204.893 162.116 204.893 162.116C204.893 162.116 210.559 164.092 212.959 162.116C213.261 161.88 213.599 161.694 213.96 161.564C213.649 161.786 213.313 161.972 212.959 162.116L228.298 157.175L227.588 155.188L199.735 154.234L192.793 158.123L192.695 158.348Z" fill="black"/>
<path d="M221.025 149.774L209.684 147.255C209.684 147.255 182.588 152.293 180.572 154.308C180.572 154.308 202.248 158.714 204.642 160.214C207.036 161.715 221.279 163.374 221.025 149.774Z" fill="white"/>
<path d="M178.943 190.259C178.26 191.558 176.579 191.925 175.101 191.945C173.049 191.971 171.011 191.607 169.095 190.873C168.002 190.454 166.953 189.913 165.824 189.606C164.142 189.145 162.277 189.184 160.799 188.259C160.015 187.737 159.368 187.036 158.911 186.213C158.825 186.068 158.742 185.917 158.665 185.764C157.959 184.391 157.631 182.793 158.024 181.31C158.417 179.828 159.845 178.194 161.5 178.218C163.465 178.248 165.809 179.178 167.706 179.659C170.071 180.25 172.435 180.932 174.525 182.181C176.274 183.233 177.82 184.742 178.645 186.585C178.803 186.94 178.934 187.308 179.035 187.684C179.292 188.534 179.351 189.482 178.943 190.259Z" fill="#A26565"/>
<path opacity="0.1" d="M178.943 190.259C178.26 191.558 176.579 191.925 175.101 191.945C173.049 191.971 171.011 191.607 169.095 190.873C168.002 190.454 166.952 189.913 165.823 189.606C164.142 189.146 162.277 189.184 160.799 188.26C160.015 187.737 159.368 187.036 158.91 186.213C158.825 186.068 158.742 185.917 158.665 185.764C158.961 185.788 159.232 185.817 159.38 185.832C161.195 186.006 162.927 186.668 164.659 187.167C167.063 187.861 169.546 188.248 172.048 188.319C173.821 188.369 175.671 188.239 177.22 187.374C177.682 187.082 178.162 186.819 178.656 186.585C178.815 186.94 178.945 187.308 179.046 187.684C179.292 188.534 179.351 189.482 178.943 190.259Z" fill="black"/>
<path d="M191.644 134.104C187.802 133.475 183.888 133.321 179.993 133.167L175.229 132.978C174.89 132.939 174.546 132.981 174.227 133.1C173.951 133.277 173.689 133.474 173.443 133.69C172.965 134.015 172.353 134.051 171.777 134.083C167.688 134.308 163.622 134.835 159.612 135.66C157.543 136.082 155.394 136.635 153.839 138.061C152.196 139.57 151.475 141.871 151.419 144.098C151.363 146.325 151.948 148.513 152.566 150.651C153.352 153.225 153.786 155.894 153.857 158.584C153.829 159.331 153.858 160.078 153.943 160.82C154.08 161.528 154.289 162.221 154.566 162.887L156.742 168.691C156.934 169.199 157.123 169.704 157.333 170.2C157.543 170.696 157.744 171.086 157.924 171.552C158.19 172.19 158.4 172.852 158.61 173.511L160.058 178.056L160.247 178.646C160.77 180.283 161.305 181.948 162.292 183.354C163.279 184.76 164.807 185.894 166.525 185.98C167.079 185.959 167.633 185.974 168.186 186.024C168.656 186.139 169.113 186.304 169.548 186.517C170.838 187.052 172.222 187.323 173.618 187.312C174.904 187.312 176.331 186.954 177.029 185.873C177.413 185.283 177.513 184.556 177.62 183.859C177.806 182.459 177.986 180.997 177.51 179.668C177.215 178.874 176.718 178.192 176.375 177.409C175.897 176.343 175.74 175.164 175.43 174.039C174.758 171.617 173.391 169.445 171.499 167.79C170.827 165.13 170.333 162.429 170.021 159.704C169.978 159.1 169.857 158.505 169.663 157.931C169.318 157.045 168.617 156.328 168.324 155.424C168.05 154.585 168.132 153.617 167.633 152.893C171.791 154.036 175.908 153.779 180.226 153.711C181.609 153.716 182.991 153.637 184.364 153.475C185.004 153.358 185.653 153.288 186.303 153.268C187.639 153.268 188.892 153.859 190.119 154.379C193.585 155.855 197.239 157.016 201.004 157.175C204.89 157.338 208.733 156.425 212.531 155.522C214.2 155.123 215.935 154.692 217.259 153.596C218.583 152.5 219.328 150.524 218.513 149.021C217.892 147.89 216.606 147.335 215.406 146.862C212.084 145.551 208.744 144.272 205.544 142.686C200.655 140.306 196.999 134.99 191.644 134.104Z" fill="#454B69"/>
<path d="M184.792 120.743C184.328 121.747 183.548 122.568 182.972 123.513C182.007 125.069 181.689 126.939 182.085 128.726C182.293 129.609 182.7 130.433 183.277 131.133C183.853 131.834 184.583 132.394 185.41 132.769C186.148 133.063 186.924 133.25 187.715 133.324C188.756 133.451 189.864 133.478 190.783 132.975C191.471 132.563 192.035 131.973 192.417 131.268C193.213 129.939 193.665 128.442 194.078 126.951C194.844 124.198 195.497 121.375 195.403 118.519C195.37 117.535 195.175 116.428 194.359 115.861C193.938 115.618 193.471 115.465 192.988 115.412L189.09 114.715C188.336 114.579 187.021 114.027 186.367 114.57C185.714 115.114 185.664 116.72 185.552 117.473C185.374 118.587 185.265 119.718 184.792 120.743Z" fill="#A1616A"/>
<path d="M232.178 109.319L231.158 117.86C230.947 119.383 230.826 120.918 230.795 122.455C230.795 123.312 230.822 124.263 230.254 124.904C229.976 125.195 229.625 125.407 229.237 125.515C227.999 125.899 226.648 125.556 225.466 125.028C224.774 124.732 224.068 124.304 223.755 123.616C223.573 123.139 223.497 122.628 223.533 122.119C223.533 117.024 224.015 111.711 226.678 107.37C226.905 106.944 227.225 106.574 227.615 106.289C228.354 105.816 229.32 105.949 230.157 106.206C230.671 106.362 232.06 106.537 232.388 106.994C232.716 107.452 232.249 108.731 232.178 109.319Z" fill="#A1616A"/>
<path d="M205.126 78.4327C211.003 78.4327 215.766 73.6726 215.766 67.8006C215.766 61.9286 211.003 57.1685 205.126 57.1685C199.25 57.1685 194.486 61.9286 194.486 67.8006C194.486 73.6726 199.25 78.4327 205.126 78.4327Z" fill="#A1616A"/>
<path d="M202.281 83.6453C202.242 84.4725 202.017 85.2803 201.622 86.008C207.054 85.1811 212.472 84.2596 217.877 83.2437C216.084 82.3226 214.728 80.73 214.106 78.8136C213.812 77.786 213.651 76.725 213.627 75.6565C213.541 73.962 213.574 72.2637 213.725 70.5737C211.833 70.7716 210.042 71.4804 208.239 72.0888C206.426 72.7009 204.583 73.2165 202.715 73.6334C201.814 73.8342 200.906 74.0055 199.996 74.165C198.932 74.354 198.421 74.3511 199.16 75.2843C201.143 77.777 202.559 80.311 202.281 83.6453Z" fill="#A1616A"/>
<path d="M205.549 82.2247C204.145 82.4344 202.673 82.6707 201.553 83.539C201.126 83.9049 200.721 84.2943 200.338 84.7055C198.113 86.8644 194.971 87.7327 192.269 89.2567C191.829 89.4743 191.438 89.781 191.123 90.1575C190.827 90.568 190.676 91.0907 190.366 91.4983C190.006 91.9708 189.435 92.2662 189.154 92.7889C188.874 93.3117 188.936 93.8669 188.906 94.4221C188.838 95.6419 188.377 96.7996 188.019 97.9662C186.379 103.551 187.278 109.78 184.795 115.054C184.909 115.358 185.084 115.636 185.308 115.87C185.533 116.105 185.803 116.291 186.101 116.419C186.726 116.644 187.378 116.784 188.04 116.835L193.54 117.517C194.327 117.615 195.16 117.706 195.878 117.379C195.221 119.189 194.757 121.062 194.492 122.969C194.358 124.135 194.151 125.291 193.871 126.431C193.115 129.03 191.211 131.195 188.956 132.674C188.672 132.823 188.433 133.044 188.262 133.315C187.966 133.906 188.404 134.567 188.714 135.146C189.615 136.824 189.491 138.838 189.479 140.74C189.468 142.642 189.66 144.73 190.99 146.094C191.776 146.901 192.852 147.338 193.898 147.754L202.502 151.189C203.921 151.793 205.386 152.287 206.882 152.666C209.149 153.182 211.504 153.162 213.83 153.061C215.367 152.996 216.902 152.898 218.435 152.766C219.045 152.764 219.644 152.606 220.176 152.308C220.633 151.947 220.986 151.47 221.195 150.926C222.392 148.324 222.794 145.288 224.65 143.108C225.924 141.611 227.901 140.415 228.046 138.457C228.114 137.482 227.68 136.534 227.674 135.557C227.674 134.355 228.303 133.212 228.265 132.013C228.185 130.06 226.344 128.572 226.051 126.64C225.307 121.744 227.795 116.853 229.323 112.142C229.598 111.301 229.953 110.37 230.762 110.01C231.572 109.65 232.713 109.839 233.003 109.041C233.733 107.039 233.907 104.691 233.813 102.562C233.759 101.33 233.322 100.125 233.372 98.8906C233.408 98.0223 233.685 97.1776 233.759 96.3123C233.872 95.0039 233.526 93.7045 233.168 92.4404C233.065 91.9891 232.91 91.5511 232.707 91.135C232.489 90.7576 232.231 90.4042 231.939 90.0807L230.499 88.3707C229.826 87.5703 229.113 86.7404 228.135 86.3358C227.819 85.5532 226.808 85.0127 226.084 84.5815C225.354 84.1676 224.6 83.7978 223.826 83.474L215.686 79.8827C215.382 79.7296 215.056 79.624 214.72 79.5696C214.224 79.553 213.732 79.6542 213.283 79.865C210.801 80.8484 208.209 81.829 205.549 82.2247Z" fill="#F4D160"/>
<path d="M196.928 69.6492C196.614 68.5476 195.814 67.5966 195.692 66.4566C195.583 65.4436 196.029 64.463 196.283 63.4766C196.538 62.4902 196.529 61.2852 195.746 60.6296C195.616 60.5173 195.45 60.4169 195.403 60.2515C195.308 59.9562 195.607 59.6874 195.698 59.3892C195.867 58.7985 195.137 58.1458 195.403 57.5787C195.553 57.2686 195.932 57.1594 196.263 57.0619C197.528 56.6868 198.81 55.854 199.085 54.5633C200.075 54.9768 201.131 54.2001 201.89 53.447C202.65 52.6939 203.584 51.8344 204.63 52.0618L204.396 52.5373C206.01 51.9521 207.774 51.9323 209.4 52.4812H208.904C210.33 52.5054 211.713 52.973 212.861 53.8191C212.734 53.8191 212.722 54.0081 212.772 54.1144C213.186 55.0802 214.25 55.5911 215.276 55.8303C215.894 55.978 216.564 56.0843 217.017 56.5273C217.469 56.9703 217.478 57.8948 216.881 58.1074C218.098 58.5811 219.251 59.2062 220.312 59.968C220.608 60.1836 220.942 60.476 220.903 60.854C220.861 61.0438 220.799 61.2289 220.72 61.4063C220.661 61.7216 220.682 62.0466 220.782 62.3514L221.11 63.704C221.471 65.2073 221.754 67.0177 220.658 68.1075C221.068 68.8739 221.221 69.752 221.092 70.6117C220.964 71.4713 220.562 72.2668 219.946 72.8802C220.033 73.144 220.063 73.4233 220.034 73.6996C220.005 73.9759 219.918 74.243 219.778 74.4832C219.639 74.7234 219.45 74.9314 219.224 75.0934C218.998 75.2554 218.74 75.3677 218.468 75.423C218.831 75.9901 218.497 76.7993 217.924 77.1537C217.351 77.5081 216.629 77.511 215.961 77.449C215.294 77.387 214.617 77.2364 213.949 77.3368C212.976 77.4874 212.025 78.149 211.088 77.8536C210.739 77.7044 210.403 77.5245 210.086 77.3161C209.43 76.9647 208.667 76.8849 207.94 76.7254C206.701 76.4593 205.524 75.958 204.473 75.2488C203.777 74.8305 203.222 74.2133 202.88 73.4767C202.23 71.8347 203.324 69.6817 202.174 68.3438C201.5 67.5641 200.164 67.5523 199.41 68.2197C199.035 68.5535 198.985 69.2564 198.595 69.5074C198.05 69.645 197.487 69.6929 196.928 69.6492Z" fill="#464353"/>
<path opacity="0.1" d="M182.47 154.334C182.049 154.002 181.687 153.603 181.397 153.153C181.105 152.701 180.99 152.158 181.072 151.626C180.956 152.298 181 152.988 181.2 153.641C181.4 154.293 181.749 154.89 182.221 155.383C182.963 156.142 184.355 156.886 185.44 156.626C185.286 155.758 183.158 154.919 182.47 154.334Z" fill="black"/>
<path d="M240.936 106.829C240.936 106.829 234.635 103.179 226.318 107.715C218.001 112.252 216.615 138.947 216.615 138.947C216.615 138.947 220.016 166.145 206.9 160.093C206.9 160.093 182.96 152.666 180.563 154.302C180.563 154.302 178.293 154.302 182.83 155.309C187.367 156.316 204.893 161.865 204.893 161.865C204.893 161.865 210.559 163.844 212.959 161.865C215.359 159.887 222.159 162.119 223.043 148.516C223.628 139.944 224.68 131.41 226.194 122.952L228.531 116.026L240.936 106.829Z" fill="#565661"/>
<path d="M241.693 148.891C241.693 148.891 238.92 121.313 243.466 111.363C247.421 102.692 232.129 106.747 228.139 107.928C227.521 108.112 226.982 108.497 226.608 109.021C224.243 112.343 215.761 125.66 218.261 143.478C218.261 143.478 219.269 159.346 212.968 161.862L232.383 155.613C233.958 155.105 235.557 154.683 237.171 154.316C239.228 153.85 242.579 152.524 241.693 148.891Z" fill="white"/>
<path opacity="0.1" d="M292.59 202.518C308.495 202.518 321.389 200.449 321.389 197.896C321.389 195.344 308.495 193.274 292.59 193.274C276.685 193.274 263.791 195.344 263.791 197.896C263.791 200.449 276.685 202.518 292.59 202.518Z" fill="#F4D160"/>
<path d="M293.515 109.352H291.662V151.044H293.515V109.352Z" fill="#535461"/>
<path d="M305.163 150.917L305.047 152.796L304.882 155.454L304.814 156.558L304.651 159.216L304.581 160.321L304.415 162.979L302.547 193.124C302.462 194.418 301.887 195.631 300.94 196.517C299.992 197.403 298.743 197.896 297.446 197.897H287.731C286.431 197.896 285.18 197.4 284.234 196.51C283.287 195.62 282.715 194.403 282.636 193.106L280.762 162.958L280.599 160.3L280.531 159.196L280.363 156.537L280.295 155.433L280.132 152.775L280.014 150.897C279.994 150.537 280.047 150.176 280.17 149.837C280.293 149.498 280.484 149.188 280.732 148.925C280.979 148.663 281.277 148.453 281.608 148.309C281.939 148.165 282.295 148.09 282.656 148.088H302.523C302.886 148.09 303.244 148.166 303.576 148.311C303.908 148.457 304.207 148.669 304.454 148.933C304.701 149.198 304.892 149.511 305.013 149.852C305.135 150.193 305.186 150.556 305.163 150.917Z" fill="#565661"/>
<path d="M305.047 152.795L304.882 155.445H280.297L280.132 152.795H305.047Z" fill="#9D9CB5"/>
<path d="M304.814 156.552L304.652 159.204H280.532L280.366 156.552H304.814Z" fill="#9D9CB5"/>
<path d="M304.581 160.309L304.415 162.958H280.765L280.6 160.309H304.581Z" fill="#9D9CB5"/>
<path d="M277.301 124.978C288.095 132.781 292.59 144.984 292.59 144.984C292.59 144.984 279.586 144.538 268.789 136.735C257.992 128.932 253.503 116.732 253.503 116.732C253.503 116.732 266.51 117.178 277.301 124.978Z" fill="#F4D160"/>
<path d="M253.503 116.732C253.503 116.732 267.001 124.219 271.334 130.418C275.667 136.617 292.59 144.984 292.59 144.984" stroke="#535461" stroke-width="2" stroke-miterlimit="10"/>
<path d="M284.267 109.26C290.143 113.504 292.59 120.149 292.59 120.149C292.59 120.149 285.497 119.904 279.636 115.66C273.775 111.416 271.331 104.771 271.331 104.771C271.331 104.771 278.395 105.013 284.267 109.26Z" fill="#F4D160"/>
<path d="M271.331 104.771C271.331 104.771 278.679 108.846 281.034 112.219C283.39 115.592 292.605 120.149 292.605 120.149" stroke="#535461" stroke-width="2" stroke-miterlimit="10"/>
<path d="M301.125 119.809C294.378 127.219 292.95 136.903 292.95 136.903C292.95 136.903 302.464 134.57 309.206 127.157C315.947 119.744 317.381 110.063 317.381 110.063C317.381 110.063 307.873 112.399 301.125 119.809Z" fill="#F4D160"/>
<path d="M317.387 110.066C317.387 110.066 308.597 117.662 306.362 122.896C304.128 128.129 292.95 136.903 292.95 136.903" stroke="#535461" stroke-width="2" stroke-miterlimit="10"/>
<path d="M164.618 101.971V102.644H144.636V102.098C145.184 101.893 145.702 101.617 146.179 101.277C147.027 100.67 147.719 99.8691 148.196 98.9415C148.673 98.0139 148.921 96.986 148.921 95.9431C148.922 95.3982 148.853 94.8554 148.717 94.3276C148.476 93.3778 148.024 92.494 147.396 91.7412C146.768 90.9885 145.979 90.3857 145.088 89.9773H164.482C163.591 90.3857 162.802 90.9885 162.174 91.7412C161.546 92.494 161.094 93.3778 160.853 94.3276C160.718 94.8555 160.651 95.3983 160.652 95.9431C160.651 96.9858 160.899 98.0136 161.376 98.9413C161.852 99.8689 162.543 100.67 163.392 101.277C163.775 101.55 164.186 101.783 164.618 101.971Z" fill="#DFE6F5"/>
<path opacity="0.1" d="M164.482 89.9773C163.591 90.3857 162.802 90.9885 162.174 91.7413C161.546 92.494 161.094 93.3778 160.853 94.3276H148.717C148.476 93.3778 148.024 92.494 147.396 91.7413C146.768 90.9885 145.979 90.3857 145.088 89.9773H164.482Z" fill="black"/>
<path d="M121.757 86.5369V90.329C121.757 92.42 123.288 94.1181 125.179 94.1181H183.968C185.86 94.1181 187.394 92.42 187.394 90.329V86.5369H121.757Z" fill="#DFE6F5"/>
<path opacity="0.1" d="M164.618 101.971V102.644H144.636V102.098C145.184 101.893 145.702 101.617 146.179 101.277H163.392C163.775 101.55 164.186 101.783 164.618 101.971Z" fill="black"/>
<path d="M170.219 101.487H139.035C138.482 101.487 138.033 101.934 138.033 102.487C138.033 103.039 138.482 103.486 139.035 103.486H170.219C170.772 103.486 171.221 103.039 171.221 102.487C171.221 101.934 170.772 101.487 170.219 101.487Z" fill="#DFE6F5"/>
<path d="M187.394 45.0035C187.394 44.5541 187.305 44.1092 187.133 43.694C186.961 43.2789 186.708 42.9018 186.39 42.5841C186.072 42.2665 185.694 42.0147 185.279 41.843C184.863 41.6713 184.418 41.5831 183.968 41.5835H125.179C124.73 41.5831 124.285 41.6713 123.869 41.843C123.454 42.0148 123.076 42.2667 122.758 42.5843C122.441 42.902 122.188 43.2792 122.017 43.6943C121.845 44.1094 121.756 44.5543 121.757 45.0035V87.2751H187.394V45.0035Z" fill="#474157"/>
<path d="M185.602 46.5303V82.8568C185.603 83.0781 185.56 83.2973 185.475 83.5019C185.391 83.7065 185.267 83.8924 185.11 84.049C184.954 84.2057 184.768 84.3299 184.563 84.4147C184.359 84.4995 184.139 84.5432 183.918 84.5432H125.233C125.011 84.5432 124.792 84.4995 124.587 84.4147C124.383 84.3299 124.197 84.2057 124.04 84.049C123.884 83.8924 123.76 83.7065 123.675 83.5019C123.591 83.2973 123.547 83.0781 123.548 82.8568V46.5303C123.546 46.2348 123.624 45.9442 123.772 45.6886C123.92 45.4326 124.133 45.22 124.39 45.0722C124.646 44.9244 124.937 44.8467 125.233 44.8469H183.918C184.365 44.8469 184.793 45.0243 185.109 45.34C185.425 45.6557 185.602 46.0839 185.602 46.5303Z" fill="#4C4C78"/>
<path d="M154.575 44.0024C155.011 44.0024 155.364 43.6494 155.364 43.2138C155.364 42.7783 155.011 42.4253 154.575 42.4253C154.139 42.4253 153.786 42.7783 153.786 43.2138C153.786 43.6494 154.139 44.0024 154.575 44.0024Z" fill="white"/>
<path d="M154.575 92.4316C155.65 92.4316 156.522 91.5602 156.522 90.4853C156.522 89.4104 155.65 88.5391 154.575 88.5391C153.499 88.5391 152.627 89.4104 152.627 90.4853C152.627 91.5602 153.499 92.4316 154.575 92.4316Z" fill="white"/>
<path d="M185.602 46.5303H123.554C123.554 46.0839 123.731 45.6557 124.047 45.34C124.363 45.0243 124.792 44.8469 125.238 44.8469H183.918C184.365 44.8469 184.793 45.0243 185.109 45.34C185.425 45.6557 185.602 46.0839 185.602 46.5303Z" fill="#C8CAD7"/>
<path d="M125.232 46.111C125.466 46.111 125.655 45.9219 125.655 45.6887C125.655 45.4554 125.466 45.2664 125.232 45.2664C124.999 45.2664 124.81 45.4554 124.81 45.6887C124.81 45.9219 124.999 46.111 125.232 46.111Z" fill="#EDEDF4"/>
<path d="M126.497 46.111C126.73 46.111 126.92 45.9219 126.92 45.6887C126.92 45.4554 126.73 45.2664 126.497 45.2664C126.263 45.2664 126.074 45.4554 126.074 45.6887C126.074 45.9219 126.263 46.111 126.497 46.111Z" fill="#EDEDF4"/>
<path d="M127.762 46.111C127.996 46.111 128.185 45.9219 128.185 45.6887C128.185 45.4554 127.996 45.2664 127.762 45.2664C127.529 45.2664 127.34 45.4554 127.34 45.6887C127.34 45.9219 127.529 46.111 127.762 46.111Z" fill="#EDEDF4"/>
</g>
<defs>
<linearGradient id="paint0_linear" x1="114.217" y1="138.141" x2="114.902" y2="138.141" gradientUnits="userSpaceOnUse">
<stop stop-color="#808080" stop-opacity="0.25"/>
<stop offset="0.54" stop-color="#808080" stop-opacity="0.12"/>
<stop offset="1" stop-color="#808080" stop-opacity="0.1"/>
</linearGradient>
<clipPath id="clip0">
<rect width="334" height="218" fill="white"/>
</clipPath>
</defs>
</svg>
